<svg xmlns="http://www.w3.org/2000/svg" xmlns:xlink="http://www.w3.org/1999/xlink" width="500" zoomAndPan="magnify" viewBox="0 0 375 374.999991" height="500" preserveAspectRatio="xMidYMid meet" version="1.0"><defs><clipPath id="36d5959733"><path d="M 47.695312 47.695312 L 327.304688 47.695312 L 327.304688 327.304688 L 47.695312 327.304688 Z M 47.695312 47.695312 " clip-rule="nonzero"/></clipPath><clipPath id="a8922470fe"><path d="M 187.5 47.695312 C 110.289062 47.695312 47.695312 110.289062 47.695312 187.5 C 47.695312 264.710938 110.289062 327.304688 187.5 327.304688 C 264.710938 327.304688 327.304688 264.710938 327.304688 187.5 C 327.304688 110.289062 264.710938 47.695312 187.5 47.695312 Z M 187.5 47.695312 " clip-rule="nonzero"/></clipPath><clipPath id="f818b00834"><path d="M 0.695312 0.695312 L 280.304688 0.695312 L 280.304688 280.304688 L 0.695312 280.304688 Z M 0.695312 0.695312 " clip-rule="nonzero"/></clipPath><clipPath id="c8b65bd5b6"><path d="M 140.5 0.695312 C 63.289062 0.695312 0.695312 63.289062 0.695312 140.5 C 0.695312 217.710938 63.289062 280.304688 140.5 280.304688 C 217.710938 280.304688 280.304688 217.710938 280.304688 140.5 C 280.304688 63.289062 217.710938 0.695312 140.5 0.695312 Z M 140.5 0.695312 " clip-rule="nonzero"/></clipPath><clipPath id="ef6907e9a6"><rect x="0" width="281" y="0" height="281"/></clipPath><clipPath id="a231e1aa71"><path d="M 91 98.433594 L 286 98.433594 L 286 276.933594 L 91 276.933594 Z M 91 98.433594 " clip-rule="nonzero"/></clipPath><clipPath id="9ee7f2b25f"><path d="M 247 215 L 286.0625 215 L 286.0625 255 L 247 255 Z M 247 215 " clip-rule="nonzero"/></clipPath></defs><g clip-path="url(#36d5959733)"><g clip-path="url(#a8922470fe)"><g transform="matrix(1, 0, 0, 1, 47, 47)"><g clip-path="url(#ef6907e9a6)"><g clip-path="url(#f818b00834)"><g clip-path="url(#c8b65bd5b6)"><path fill="#0037a1" d="M 0.695312 0.695312 L 280.304688 0.695312 L 280.304688 280.304688 L 0.695312 280.304688 Z M 0.695312 0.695312 " fill-opacity="1" fill-rule="nonzero"/></g></g></g></g></g></g><g clip-path="url(#a231e1aa71)"><path fill="#ffffff" d="M 109.582031 276.527344 C 107.203125 276.527344 104.734375 276.070312 102.445312 275.0625 C 93.113281 271.128906 88.8125 260.332031 92.746094 251.089844 L 142.15625 134.792969 C 142.980469 132.960938 143.988281 131.222656 145.359375 129.757812 L 145.816406 129.210938 C 149.933594 124.542969 156.15625 122.347656 162.289062 123.355469 C 168.417969 124.359375 173.632812 128.386719 176.195312 134.058594 L 200.351562 188.960938 L 249.761719 107.800781 C 252.691406 102.949219 257.722656 99.746094 263.394531 99.105469 C 269.070312 98.464844 274.648438 100.570312 278.585938 104.597656 L 279.773438 105.878906 C 282.976562 109.261719 284.808594 113.65625 284.898438 118.320312 L 285.8125 184.476562 C 285.996094 194.542969 277.851562 202.867188 267.789062 203.050781 C 257.722656 203.234375 249.394531 195.089844 249.214844 185.027344 L 249.121094 179.078125 L 213.4375 237.730469 C 209.867188 243.585938 203.371094 246.878906 196.601562 246.421875 C 189.828125 245.964844 183.789062 241.757812 181.046875 235.535156 L 159.632812 187.039062 L 126.328125 265.363281 C 123.398438 272.316406 116.628906 276.527344 109.582031 276.527344 Z M 109.582031 276.527344 " fill-opacity="1" fill-rule="nonzero"/></g><g clip-path="url(#9ee7f2b25f)"><path fill="#ffffff" d="M 286.179688 234.800781 C 286.179688 235.433594 286.148438 236.058594 286.085938 236.6875 C 286.023438 237.3125 285.933594 237.933594 285.808594 238.550781 C 285.6875 239.167969 285.535156 239.777344 285.351562 240.378906 C 285.167969 240.984375 284.957031 241.574219 284.714844 242.15625 C 284.476562 242.738281 284.207031 243.304688 283.910156 243.859375 C 283.613281 244.414062 283.289062 244.953125 282.941406 245.476562 C 282.589844 246 282.21875 246.507812 281.816406 246.992188 C 281.417969 247.480469 280.996094 247.945312 280.550781 248.390625 C 280.105469 248.835938 279.640625 249.257812 279.152344 249.65625 C 278.667969 250.054688 278.164062 250.429688 277.640625 250.78125 C 277.117188 251.128906 276.578125 251.453125 276.023438 251.75 C 275.46875 252.046875 274.898438 252.3125 274.316406 252.554688 C 273.734375 252.796875 273.144531 253.007812 272.542969 253.191406 C 271.941406 253.375 271.332031 253.527344 270.710938 253.648438 C 270.09375 253.769531 269.472656 253.863281 268.847656 253.925781 C 268.222656 253.988281 267.59375 254.019531 266.964844 254.019531 C 266.335938 254.019531 265.707031 253.988281 265.082031 253.925781 C 264.453125 253.863281 263.832031 253.769531 263.214844 253.648438 C 262.597656 253.527344 261.988281 253.375 261.386719 253.191406 C 260.785156 253.007812 260.191406 252.796875 259.609375 252.554688 C 259.03125 252.3125 258.460938 252.046875 257.90625 251.75 C 257.351562 251.453125 256.8125 251.128906 256.289062 250.78125 C 255.765625 250.429688 255.261719 250.054688 254.773438 249.65625 C 254.289062 249.257812 253.820312 248.835938 253.378906 248.390625 C 252.933594 247.945312 252.511719 247.480469 252.109375 246.992188 C 251.710938 246.507812 251.335938 246 250.988281 245.476562 C 250.636719 244.953125 250.316406 244.414062 250.019531 243.859375 C 249.722656 243.304688 249.453125 242.738281 249.210938 242.15625 C 248.972656 241.574219 248.757812 240.984375 248.578125 240.378906 C 248.394531 239.777344 248.242188 239.167969 248.117188 238.550781 C 247.996094 237.933594 247.902344 237.3125 247.839844 236.6875 C 247.78125 236.058594 247.75 235.433594 247.75 234.800781 C 247.75 234.171875 247.78125 233.546875 247.839844 232.917969 C 247.902344 232.292969 247.996094 231.671875 248.117188 231.054688 C 248.242188 230.4375 248.394531 229.828125 248.578125 229.226562 C 248.757812 228.621094 248.972656 228.03125 249.210938 227.449219 C 249.453125 226.867188 249.722656 226.300781 250.019531 225.746094 C 250.316406 225.191406 250.636719 224.652344 250.988281 224.128906 C 251.335938 223.605469 251.710938 223.097656 252.109375 222.613281 C 252.511719 222.125 252.933594 221.660156 253.378906 221.214844 C 253.820312 220.769531 254.289062 220.347656 254.773438 219.949219 C 255.261719 219.550781 255.765625 219.175781 256.289062 218.824219 C 256.8125 218.476562 257.351562 218.152344 257.90625 217.855469 C 258.460938 217.558594 259.03125 217.289062 259.609375 217.050781 C 260.191406 216.808594 260.785156 216.597656 261.386719 216.414062 C 261.988281 216.230469 262.597656 216.078125 263.214844 215.957031 C 263.832031 215.832031 264.453125 215.742188 265.082031 215.679688 C 265.707031 215.617188 266.335938 215.585938 266.964844 215.585938 C 267.59375 215.585938 268.222656 215.617188 268.847656 215.679688 C 269.472656 215.742188 270.09375 215.832031 270.710938 215.957031 C 271.332031 216.078125 271.941406 216.230469 272.542969 216.414062 C 273.144531 216.597656 273.734375 216.808594 274.316406 217.050781 C 274.898438 217.289062 275.46875 217.558594 276.023438 217.855469 C 276.578125 218.152344 277.117188 218.476562 277.640625 218.824219 C 278.164062 219.175781 278.667969 219.550781 279.152344 219.949219 C 279.640625 220.347656 280.105469 220.769531 280.550781 221.214844 C 280.996094 221.660156 281.417969 222.125 281.816406 222.613281 C 282.21875 223.097656 282.589844 223.605469 282.941406 224.128906 C 283.289062 224.652344 283.613281 225.191406 283.910156 225.746094 C 284.207031 226.300781 284.476562 226.867188 284.714844 227.449219 C 284.957031 228.03125 285.167969 228.621094 285.351562 229.226562 C 285.535156 229.828125 285.6875 230.4375 285.808594 231.054688 C 285.933594 231.671875 286.023438 232.292969 286.085938 232.917969 C 286.148438 233.546875 286.179688 234.171875 286.179688 234.800781 Z M 286.179688 234.800781 " fill-opacity="1" fill-rule="nonzero"/></g></svg>